<svg width="64" height="64" viewBox="0 0 64 64" fill="none" xmlns="http://www.w3.org/2000/svg">
<path d="M18.6611 26.283V37.7144" stroke="#F67ACB" stroke-width="1.5" stroke-linecap="round" stroke-linejoin="round"/>
<path fill-rule="evenodd" clip-rule="evenodd" d="M32 56.01V56.01C18.7396 56.01 7.98999 45.2603 7.98999 32V32C7.98999 18.7396 18.7396 7.98999 32 7.98999V7.98999C45.2603 7.98999 56.01 18.7396 56.01 32V32C56.01 45.2603 45.2603 56.01 32 56.01V56.01Z" stroke="#F67ACB" stroke-width="1.5" stroke-linecap="round" stroke-linejoin="round"/>
<path d="M32.3014 26.283H29.1268C27.7237 26.2844 26.5871 27.4223 26.5871 28.8254V35.1747C26.5871 36.5773 27.7241 37.7144 29.1268 37.7144H32.3014" stroke="#F67ACB" stroke-width="1.5" stroke-linecap="round" stroke-linejoin="round"/>
<path fill-rule="evenodd" clip-rule="evenodd" d="M43.7169 38.0025H41.7161C40.2427 38.0025 39.0483 36.8081 39.0483 35.3347V28.6653C39.0483 27.1919 40.2427 25.9975 41.7161 25.9975H43.7169C45.1903 25.9975 46.3847 27.1919 46.3847 28.6653V35.3347C46.3847 36.8081 45.1903 38.0025 43.7169 38.0025Z" stroke="#F67ACB" stroke-width="1.5" stroke-linecap="round" stroke-linejoin="round"/>
</svg>
