<svg width="208" height="56" viewBox="0 0 208 56" fill="none" xmlns="http://www.w3.org/2000/svg">
<rect x="0.5" y="0.5" width="207" height="55" stroke="#F67ACB"/>
<path fill-rule="evenodd" clip-rule="evenodd" d="M85.773 23.227C88.4091 25.8631 88.4091 30.1369 85.773 32.773C83.137 35.409 78.8631 35.409 76.2271 32.773C73.5911 30.1369 73.5911 25.8631 76.2271 23.227C78.8631 20.591 83.137 20.591 85.773 23.227Z" fill="#F67ACB"/>
<path d="M106.32 33V30.968H101.152V21.8H98.864V33H106.32ZM106.806 28.872C106.806 31.304 108.71 33.16 111.222 33.16C113.734 33.16 115.638 31.304 115.638 28.872C115.638 26.44 113.734 24.584 111.222 24.584C108.71 24.584 106.806 26.44 106.806 28.872ZM109.046 28.872C109.046 27.56 109.99 26.568 111.222 26.568C112.47 26.568 113.398 27.56 113.398 28.872C113.398 30.2 112.47 31.192 111.222 31.192C109.99 31.192 109.046 30.2 109.046 28.872ZM123.129 25.688C122.489 25 121.593 24.584 120.505 24.584C118.249 24.584 116.537 26.392 116.537 28.744C116.537 31.096 118.249 32.904 120.505 32.904C121.593 32.904 122.489 32.488 123.129 31.8V32.072C123.129 33.432 122.121 34.392 120.873 34.392C119.993 34.392 119.353 33.896 118.969 33.112L117.033 34.136C117.737 35.448 119.129 36.36 120.873 36.36C123.385 36.36 125.289 34.504 125.289 32.072V24.744H123.129V25.688ZM120.953 30.936C119.721 30.936 118.777 29.992 118.777 28.744C118.777 27.496 119.721 26.568 120.953 26.568C122.201 26.568 123.129 27.496 123.129 28.744C123.129 29.992 122.201 30.936 120.953 30.936ZM126.533 28.872C126.533 31.304 128.437 33.16 130.949 33.16C133.461 33.16 135.365 31.304 135.365 28.872C135.365 26.44 133.461 24.584 130.949 24.584C128.437 24.584 126.533 26.44 126.533 28.872ZM128.773 28.872C128.773 27.56 129.717 26.568 130.949 26.568C132.197 26.568 133.125 27.56 133.125 28.872C133.125 30.2 132.197 31.192 130.949 31.192C129.717 31.192 128.773 30.2 128.773 28.872Z" fill="white"/>
</svg>
