<svg width="123" height="21" viewBox="0 0 123 21" fill="none" xmlns="http://www.w3.org/2000/svg">
<path d="M116.718 0.999756V13.5289C116.718 15.9289 118.664 17.8745 121.064 17.8745H122.343" stroke="white" stroke-width="3.03448"/>
<path d="M113.343 6.62476H122.343" stroke="white" stroke-width="3.03448"/>
<path d="M55.1248 0.999756L55.1248 18.9995" stroke="white" stroke-width="3.03448"/>
<rect x="55.5172" y="7.01688" width="10.4653" height="10.4653" rx="5.23267" stroke="white" stroke-width="3.03448"/>
<mask id="mask0_1_116" style="mask-type:alpha" maskUnits="userSpaceOnUse" x="69" y="5" width="21" height="14">
<rect x="69.7498" y="5.5" width="20.2497" height="13.4998" rx="6.74991" fill="url(#paint0_linear_1_116)"/>
</mask>
<g mask="url(#mask0_1_116)">
<rect opacity="0.9" x="71.267" y="7.01724" width="17.2153" height="10.4653" rx="5.23267" stroke="white" stroke-width="3.03448"/>
</g>
<rect x="78.0175" y="7.01724" width="17.2153" height="10.4653" rx="5.23267" stroke="white" stroke-width="3.03448"/>
<path d="M110.811 6.62476H102.726C101.173 6.62476 99.9136 7.88394 99.9136 9.43722V9.43722C99.9136 10.9905 101.173 12.2497 102.726 12.2497H104.897" stroke="white" stroke-width="3.03448"/>
<path d="M104.194 12.2498H107.467C109.02 12.2498 110.28 13.5089 110.28 15.0622V15.0622C110.28 16.6155 109.02 17.8747 107.467 17.8747H98.9989" stroke="white" stroke-width="3.03448"/>
<path opacity="0.7" d="M6.034 15.2518C5.194 15.2518 4.44733 15.1164 3.794 14.8458C3.14067 14.5658 2.58533 14.1831 2.128 13.6978C1.67067 13.2124 1.32067 12.6478 1.078 12.0038C0.844667 11.3598 0.728 10.6784 0.728 9.95976V9.65176C0.728 9.00776 0.84 8.37776 1.064 7.76176C1.288 7.14576 1.61467 6.59042 2.044 6.09576C2.48267 5.60109 3.01467 5.20909 3.64 4.91976C4.27467 4.63042 4.998 4.48576 5.81 4.48576C6.678 4.48576 7.45267 4.65376 8.134 4.98976C8.81533 5.31642 9.36133 5.77376 9.772 6.36176C10.1827 6.94042 10.4207 7.61242 10.486 8.37776H8.778C8.722 7.87376 8.54933 7.44909 8.26 7.10376C7.98 6.75842 7.62533 6.49709 7.196 6.31976C6.776 6.13309 6.314 6.03976 5.81 6.03976C5.306 6.03976 4.844 6.13309 4.424 6.31976C4.01333 6.49709 3.65867 6.75376 3.36 7.08976C3.06133 7.41642 2.83267 7.81309 2.674 8.27976C2.51533 8.73709 2.436 9.25042 2.436 9.81976C2.436 10.4544 2.52 11.0144 2.688 11.4998C2.86533 11.9851 3.11267 12.3958 3.43 12.7318C3.74733 13.0584 4.12533 13.3104 4.564 13.4878C5.012 13.6558 5.502 13.7398 6.034 13.7398C6.77133 13.7398 7.41533 13.5904 7.966 13.2918C8.526 12.9838 8.946 12.5871 9.226 12.1018L8.792 13.7398V10.8978H10.36V13.2498C9.90267 13.8844 9.30533 14.3791 8.568 14.7338C7.84 15.0791 6.99533 15.2518 6.034 15.2518ZM5.684 11.2338V9.91776H11.214V11.2338H5.684ZM12.8524 14.9998V7.45376H14.1544V10.6038H14.0984C14.0984 9.52109 14.3364 8.71376 14.8124 8.18176C15.2884 7.64042 15.9931 7.36976 16.9264 7.36976H17.1924V8.81176H16.6884C15.9791 8.81176 15.4331 9.00309 15.0504 9.38576C14.6771 9.75909 14.4904 10.2958 14.4904 10.9958V14.9998H12.8524ZM21.2393 15.2238C20.3526 15.2238 19.6713 14.9391 19.1953 14.3698C18.7193 13.7911 18.4813 12.9418 18.4813 11.8218V7.45376H20.1193V12.0458C20.1193 12.5684 20.264 12.9838 20.5533 13.2918C20.8426 13.5904 21.2346 13.7398 21.7293 13.7398C22.2333 13.7398 22.644 13.5811 22.9613 13.2638C23.288 12.9371 23.4513 12.4938 23.4513 11.9338V7.45376H25.0893V14.9998H23.7873V11.7798H23.9553C23.9553 12.5358 23.8526 13.1704 23.6473 13.6838C23.4513 14.1878 23.1573 14.5704 22.7653 14.8318C22.3826 15.0931 21.8973 15.2238 21.3093 15.2238H21.2393ZM27.5224 17.7998V7.45376H28.8244V10.7158L28.5724 10.7018C28.619 9.90842 28.787 9.25509 29.0764 8.74176C29.3657 8.22842 29.7484 7.84576 30.2244 7.59376C30.7004 7.34176 31.223 7.21576 31.7924 7.21576C32.3337 7.21576 32.8237 7.31842 33.2624 7.52376C33.701 7.71976 34.079 7.99509 34.3964 8.34976C34.7137 8.70442 34.9517 9.11509 35.1104 9.58176C35.2784 10.0484 35.3624 10.5524 35.3624 11.0938V11.3598C35.3624 11.8918 35.2784 12.3958 35.1104 12.8718C34.9424 13.3384 34.6997 13.7491 34.3824 14.1038C34.065 14.4584 33.687 14.7384 33.2484 14.9438C32.8097 15.1491 32.3197 15.2518 31.7784 15.2518C31.2277 15.2518 30.7144 15.1351 30.2384 14.9018C29.7624 14.6684 29.3704 14.2951 29.0624 13.7818C28.7544 13.2684 28.5817 12.6011 28.5444 11.7798L29.1604 12.8158V17.7998H27.5224ZM31.4284 13.8378C31.8857 13.8378 32.287 13.7304 32.6324 13.5158C32.9777 13.2918 33.2437 12.9838 33.4304 12.5918C33.6264 12.1904 33.7244 11.7331 33.7244 11.2198C33.7244 10.7064 33.6264 10.2538 33.4304 9.86176C33.2437 9.46976 32.9777 9.16642 32.6324 8.95176C32.2964 8.72776 31.895 8.61576 31.4284 8.61576C31.0177 8.61576 30.635 8.70909 30.2804 8.89576C29.9257 9.08242 29.641 9.35309 29.4264 9.70776C29.2117 10.0531 29.1044 10.4731 29.1044 10.9678V11.5698C29.1044 12.0458 29.2117 12.4564 29.4264 12.8018C29.6504 13.1378 29.9397 13.3944 30.2944 13.5718C30.649 13.7491 31.027 13.8378 31.4284 13.8378ZM40.7851 15.2518C40.1224 15.2518 39.5391 15.1444 39.0351 14.9298C38.5311 14.7058 38.1064 14.4118 37.7611 14.0478C37.4157 13.6838 37.1544 13.2731 36.9771 12.8158C36.7997 12.3491 36.7111 11.8684 36.7111 11.3738V11.0938C36.7111 10.5991 36.7997 10.1184 36.9771 9.65176C37.1637 9.18509 37.4297 8.76976 37.7751 8.40576C38.1297 8.03242 38.5591 7.73842 39.0631 7.52376C39.5671 7.30909 40.1411 7.20176 40.7851 7.20176C41.4291 7.20176 41.9984 7.30909 42.4931 7.52376C42.9971 7.73842 43.4264 8.03242 43.7811 8.40576C44.1357 8.76976 44.4017 9.18509 44.5791 9.65176C44.7657 10.1184 44.8591 10.5991 44.8591 11.0938V11.3738C44.8591 11.8684 44.7704 12.3491 44.5931 12.8158C44.4157 13.2731 44.1544 13.6838 43.8091 14.0478C43.4637 14.4118 43.0391 14.7058 42.5351 14.9298C42.0311 15.1444 41.4477 15.2518 40.7851 15.2518ZM40.7851 13.8238C41.2984 13.8238 41.7371 13.7118 42.1011 13.4878C42.4651 13.2544 42.7404 12.9418 42.9271 12.5498C43.1231 12.1578 43.2211 11.7191 43.2211 11.2338C43.2211 10.7391 43.1231 10.2958 42.9271 9.90376C42.7311 9.51176 42.4511 9.20376 42.0871 8.97976C41.7231 8.74642 41.2891 8.62976 40.7851 8.62976C40.2811 8.62976 39.8471 8.74642 39.4831 8.97976C39.1191 9.20376 38.8391 9.51176 38.6431 9.90376C38.4471 10.2958 38.3491 10.7391 38.3491 11.2338C38.3491 11.7191 38.4424 12.1578 38.6291 12.5498C38.8251 12.9418 39.1051 13.2544 39.4691 13.4878C39.8331 13.7118 40.2717 13.8238 40.7851 13.8238Z" fill="white"/>
<defs>
<linearGradient id="paint0_linear_1_116" x1="69.0466" y1="9.99994" x2="85.9214" y2="9.08589" gradientUnits="userSpaceOnUse">
<stop stop-color="white"/>
<stop offset="1" stop-color="#C4C4C4" stop-opacity="0"/>
</linearGradient>
</defs>
</svg>
