<svg width="176" height="40" viewBox="0 0 176 40" fill="none" xmlns="http://www.w3.org/2000/svg">
<rect x="0.5" y="0.5" width="175" height="39" stroke="#F67ACB"/>
<path fill-rule="evenodd" clip-rule="evenodd" d="M70.5226 15.227C73.1587 17.8631 73.1587 22.1369 70.5226 24.773C67.8866 27.409 63.6127 27.409 60.9767 24.773C58.3407 22.1369 58.3407 17.8631 60.9767 15.227C63.6128 12.591 67.8866 12.591 70.5226 15.227Z" fill="#F67ACB"/>
<path d="M90.2056 23.92V21.888H85.0376V12.72H82.7496V23.92H90.2056Z" fill="#050110"/>
<path d="M90.6915 19.792C90.6915 22.224 92.5955 24.08 95.1075 24.08C97.6195 24.08 99.5235 22.224 99.5235 19.792C99.5235 17.36 97.6195 15.504 95.1075 15.504C92.5955 15.504 90.6915 17.36 90.6915 19.792ZM92.9315 19.792C92.9315 18.48 93.8755 17.488 95.1075 17.488C96.3555 17.488 97.2835 18.48 97.2835 19.792C97.2835 21.12 96.3555 22.112 95.1075 22.112C93.8755 22.112 92.9315 21.12 92.9315 19.792Z" fill="#050110"/>
<path d="M107.014 16.608C106.374 15.92 105.478 15.504 104.39 15.504C102.134 15.504 100.422 17.312 100.422 19.664C100.422 22.016 102.134 23.824 104.39 23.824C105.478 23.824 106.374 23.408 107.014 22.72V22.992C107.014 24.352 106.006 25.312 104.758 25.312C103.878 25.312 103.238 24.816 102.854 24.032L100.918 25.056C101.622 26.368 103.014 27.28 104.758 27.28C107.27 27.28 109.174 25.424 109.174 22.992V15.664H107.014V16.608ZM104.838 21.856C103.606 21.856 102.662 20.912 102.662 19.664C102.662 18.416 103.606 17.488 104.838 17.488C106.086 17.488 107.014 18.416 107.014 19.664C107.014 20.912 106.086 21.856 104.838 21.856Z" fill="#050110"/>
<path d="M110.418 19.792C110.418 22.224 112.322 24.08 114.834 24.08C117.346 24.08 119.25 22.224 119.25 19.792C119.25 17.36 117.346 15.504 114.834 15.504C112.322 15.504 110.418 17.36 110.418 19.792ZM112.658 19.792C112.658 18.48 113.602 17.488 114.834 17.488C116.082 17.488 117.01 18.48 117.01 19.792C117.01 21.12 116.082 22.112 114.834 22.112C113.602 22.112 112.658 21.12 112.658 19.792Z" fill="#050110"/>
</svg>
